<svg width="40" height="40" viewBox="0 0 40 40" fill="none" xmlns="http://www.w3.org/2000/svg">
<path d="M34.022 28.665C34.0288 28.7398 34.02 28.8152 33.9961 28.8865C33.9723 28.9577 33.9339 29.0232 33.8834 29.0788C33.8329 29.1345 33.7715 29.179 33.7029 29.2097C33.6343 29.2404 33.5601 29.2565 33.485 29.257H7.469C7.39407 29.2565 7.32006 29.2404 7.25163 29.2099C7.1832 29.1793 7.12183 29.1349 7.07139 29.0795C7.02095 29.0241 6.98253 28.9588 6.95854 28.8878C6.93455 28.8168 6.92551 28.7417 6.932 28.667L8.796 5.912C8.80654 5.77634 8.86773 5.64961 8.9674 5.55698C9.06707 5.46435 9.19793 5.4126 9.334 5.412H31.543C31.823 5.412 32.056 5.629 32.08 5.91L34.022 28.665Z" fill="#1DCF65"/>
<path d="M36.099 34.601C36.1071 34.6944 36.0958 34.7885 36.0658 34.8773C36.0358 34.9662 35.9877 35.0478 35.9246 35.1172C35.8615 35.1865 35.7847 35.242 35.699 35.2802C35.6134 35.3184 35.5208 35.3384 35.427 35.339H5.59399C5.50045 35.3385 5.40803 35.3187 5.32253 35.2807C5.23704 35.2428 5.16032 35.1875 5.0972 35.1185C5.03409 35.0495 4.98594 34.9681 4.95578 34.8796C4.92563 34.791 4.91412 34.6972 4.92199 34.604L7.06399 7.347C7.07657 7.17711 7.15273 7.01821 7.27729 6.902C7.40184 6.78578 7.56564 6.72079 7.73599 6.72H33.196C33.546 6.72 33.839 6.992 33.868 7.345L36.098 34.601H36.099Z" fill="url(#paint0_linear_2_2)"/>
<path d="M19.923 26.695C16.04 26.695 12.881 22.863 12.881 18.153C12.881 17.908 13.078 17.709 13.321 17.709C13.564 17.709 13.761 17.907 13.761 18.153C13.761 22.373 16.525 25.807 19.923 25.807C23.321 25.807 26.086 22.373 26.086 18.153C26.086 17.908 26.283 17.709 26.526 17.709C26.769 17.709 26.966 17.907 26.966 18.153C26.966 22.863 23.806 26.695 19.923 26.695V26.695Z" fill="white"/>
<path d="M24.258 18.034C24.2003 18.0339 24.1432 18.0224 24.0899 18.0001C24.0367 17.9778 23.9885 17.9451 23.948 17.904C23.8654 17.8202 23.819 17.7072 23.819 17.5895C23.819 17.4718 23.8654 17.3588 23.948 17.275L26.226 14.973C26.2667 14.9319 26.3151 14.8993 26.3685 14.8771C26.4219 14.8549 26.4792 14.8434 26.537 14.8434C26.5948 14.8434 26.6521 14.8549 26.7054 14.8771C26.7588 14.8993 26.8073 14.9319 26.848 14.973L29.105 17.253C29.1873 17.3368 29.2334 17.4495 29.2334 17.567C29.2334 17.6845 29.1873 17.7972 29.105 17.881C29.0643 17.9222 29.0159 17.9549 28.9625 17.9772C28.9091 17.9995 28.8518 18.011 28.794 18.011C28.7361 18.011 28.6788 17.9995 28.6254 17.9772C28.5721 17.9549 28.5236 17.9222 28.483 17.881L26.537 15.915L24.569 17.904C24.5285 17.9451 24.4802 17.9778 24.427 18.0001C24.3738 18.0224 24.3167 18.0339 24.259 18.034H24.258Z" fill="white"/>
<defs>
<linearGradient id="paint0_linear_2_2" x1="29.873" y1="31.334" x2="11.513" y2="9.901" gradientUnits="userSpaceOnUse">
<stop stop-color="#0F9F49"/>
<stop offset="1" stop-color="#1DCF65"/>
</linearGradient>
</defs>
</svg>
